<svg width="24" height="24" viewBox="0 0 24 24" fill="none" xmlns="http://www.w3.org/2000/svg">
<path d="M17.4782 16.6117C17.6531 16.801 17.7309 17.0153 17.7118 17.2546C17.7119 17.4946 17.6173 17.702 17.4279 17.8769C17.2386 18.0518 17.0193 18.1343 16.7701 18.1244C16.5401 18.1153 16.3376 18.016 16.1627 17.8267L11.9497 13.2653L7.4033 17.4645C7.21396 17.6394 6.99468 17.7219 6.74547 17.712C6.50546 17.7121 6.29802 17.6175 6.12314 17.4281C5.94825 17.2388 5.86575 17.0195 5.87565 16.7703C5.89474 16.531 5.99897 16.324 6.18831 16.1491L10.7347 11.9499L6.5217 7.38853C6.34682 7.19919 6.25934 6.98451 6.25927 6.74451C6.27836 6.50527 6.38259 6.2982 6.57193 6.12332C6.76128 5.94843 6.97097 5.86556 7.20101 5.87469C7.45022 5.88458 7.66226 5.9842 7.83715 6.17355L12.0502 10.7349L16.6115 6.52188C16.8009 6.347 17.0106 6.26412 17.2406 6.27325C17.4898 6.28315 17.7018 6.38277 17.8767 6.57211C18.0516 6.76146 18.1295 6.97575 18.1104 7.215C18.1105 7.455 18.0159 7.66245 17.8265 7.83733L13.2652 12.0503L17.4782 16.6117Z" fill="url(#paint0_linear)"/>
<defs>
<linearGradient id="paint0_linear" x1="11.5511" y1="23.3049" x2="17.8868" y2="2.33858" gradientUnits="userSpaceOnUse">
<stop stop-color="#15B6D6"/>
<stop offset="1" stop-color="#15D6D6"/>
</linearGradient>
</defs>
</svg>
